<?xml version="1.0" encoding="utf-8"?>
<!-- Generator: Adobe Illustrator 18.1.1, SVG Export Plug-In . SVG Version: 6.00 Build 0)  -->
<svg version="1.1" id="Layer_1" xmlns="http://www.w3.org/2000/svg" xmlns:xlink="http://www.w3.org/1999/xlink" x="0px" y="0px"
	 viewBox="0 0 368 130" enable-background="new 0 0 368 130" xml:space="preserve">
<g>
	<g>
		<path fill="#141006" d="M98.7,91.6v19.5l9.1-9.5h8.6l-9.9,9.7l11.1,16.7h-8.8l-7.2-11.8l-2.8,2.7v9.1h-7.2V91.6H98.7z"/>
		<path fill="#141006" d="M119.3,109.1c0.6-1.7,1.6-3.2,2.8-4.4c1.2-1.2,2.6-2.1,4.3-2.8c1.7-0.7,3.5-1,5.6-1c2.1,0,3.9,0.3,5.6,1
			c1.7,0.7,3.1,1.6,4.3,2.8c1.2,1.2,2.1,2.7,2.8,4.4c0.6,1.7,1,3.6,1,5.7c0,2.1-0.3,4-1,5.7c-0.6,1.7-1.6,3.2-2.8,4.4
			c-1.2,1.2-2.6,2.1-4.3,2.8c-1.7,0.6-3.6,1-5.6,1c-2.1,0-3.9-0.3-5.6-1c-1.7-0.6-3.1-1.6-4.3-2.8c-1.2-1.2-2.1-2.7-2.8-4.4
			c-0.6-1.7-1-3.6-1-5.7C118.4,112.7,118.7,110.8,119.3,109.1z M125.9,117.9c0.2,1,0.6,1.9,1,2.7c0.5,0.8,1.1,1.4,2,1.9
			c0.8,0.5,1.8,0.7,3.1,0.7c1.2,0,2.2-0.2,3.1-0.7c0.8-0.5,1.5-1.1,2-1.9c0.5-0.8,0.8-1.7,1-2.7c0.2-1,0.3-2,0.3-3.1
			c0-1.1-0.1-2.1-0.3-3.1c-0.2-1-0.6-1.9-1-2.7c-0.5-0.8-1.2-1.4-2-1.9c-0.8-0.5-1.9-0.7-3.1-0.7c-1.2,0-2.2,0.2-3.1,0.7
			c-0.8,0.5-1.5,1.1-2,1.9c-0.5,0.8-0.8,1.7-1,2.7c-0.2,1-0.3,2.1-0.3,3.1C125.6,115.9,125.7,116.9,125.9,117.9z"/>
		<path fill="#141006" d="M156,127.9l-9-26.3h7.6l5.6,18h0.1l5.6-18h7.2l-8.9,26.3H156z"/>
		<path fill="#141006" d="M176.9,105.5c0.7-1.1,1.7-2,2.9-2.7c1.2-0.7,2.5-1.2,3.9-1.5c1.4-0.3,2.9-0.4,4.4-0.4c1.3,0,2.7,0.1,4,0.3
			c1.4,0.2,2.6,0.6,3.7,1.1c1.1,0.5,2,1.3,2.8,2.3c0.7,1,1.1,2.2,1.1,3.8v13.7c0,1.2,0.1,2.3,0.2,3.4c0.1,1.1,0.4,1.9,0.7,2.4h-7.3
			c-0.1-0.4-0.2-0.8-0.3-1.2c-0.1-0.4-0.1-0.9-0.2-1.3c-1.2,1.2-2.5,2-4.1,2.5c-1.6,0.5-3.2,0.7-4.8,0.7c-1.3,0-2.4-0.2-3.5-0.5
			c-1.1-0.3-2-0.8-2.9-1.4c-0.8-0.6-1.5-1.5-1.9-2.4c-0.5-1-0.7-2.2-0.7-3.5c0-1.5,0.3-2.7,0.8-3.7c0.5-1,1.2-1.7,2-2.3
			c0.8-0.6,1.8-1,2.9-1.3c1.1-0.3,2.1-0.5,3.2-0.7c1.1-0.2,2.2-0.3,3.2-0.4c1.1-0.1,2-0.3,2.8-0.5c0.8-0.2,1.5-0.5,1.9-0.9
			c0.5-0.4,0.7-1,0.7-1.7c0-0.8-0.1-1.4-0.4-1.9c-0.3-0.5-0.6-0.8-1-1.1c-0.4-0.3-0.9-0.4-1.5-0.5c-0.6-0.1-1.2-0.1-1.8-0.1
			c-1.4,0-2.5,0.3-3.4,0.9c-0.8,0.6-1.3,1.6-1.4,3.1h-7.2C175.8,108,176.2,106.6,176.9,105.5z M191.2,115.7c-0.5,0.2-1,0.3-1.5,0.4
			c-0.5,0.1-1.1,0.2-1.7,0.3c-0.6,0.1-1.2,0.2-1.7,0.3c-0.5,0.1-1.1,0.2-1.6,0.4c-0.5,0.2-1,0.4-1.4,0.7c-0.4,0.3-0.7,0.7-0.9,1.1
			c-0.2,0.4-0.4,1-0.4,1.7c0,0.6,0.1,1.2,0.4,1.6c0.2,0.4,0.6,0.8,1,1c0.4,0.3,0.9,0.4,1.4,0.5c0.5,0.1,1.1,0.2,1.7,0.2
			c1.4,0,2.5-0.2,3.3-0.7c0.8-0.5,1.4-1,1.7-1.7c0.4-0.7,0.6-1.3,0.7-2c0.1-0.7,0.1-1.2,0.1-1.6v-2.7
			C192.1,115.3,191.7,115.5,191.2,115.7z"/>
		<path fill="#141006" d="M212.7,91.6v36.4h-7.2V91.6H212.7z"/>
		<path fill="#141006" d="M226.1,121.6c1.1,1.1,2.6,1.6,4.7,1.6c1.5,0,2.7-0.4,3.8-1.1c1.1-0.7,1.7-1.5,1.9-2.3h6.4
			c-1,3.2-2.6,5.4-4.7,6.8c-2.1,1.4-4.7,2-7.6,2c-2.1,0-3.9-0.3-5.6-1c-1.7-0.7-3.1-1.6-4.2-2.8c-1.2-1.2-2-2.7-2.7-4.4
			c-0.6-1.7-0.9-3.6-0.9-5.6c0-2,0.3-3.8,1-5.5c0.6-1.7,1.6-3.2,2.8-4.4c1.2-1.2,2.6-2.2,4.3-2.9c1.6-0.7,3.5-1.1,5.5-1.1
			c2.2,0,4.2,0.4,5.9,1.3c1.7,0.9,3,2,4.1,3.5c1.1,1.5,1.8,3.1,2.3,5c0.5,1.9,0.6,3.8,0.5,5.9h-19
			C224.4,118.9,225,120.6,226.1,121.6z M234.3,107.8c-0.9-0.9-2.2-1.4-3.9-1.4c-1.2,0-2.1,0.2-2.9,0.6c-0.8,0.4-1.4,0.9-1.8,1.5
			c-0.5,0.6-0.8,1.2-1,1.8c-0.2,0.6-0.3,1.2-0.3,1.7h11.8C235.8,110.1,235.2,108.7,234.3,107.8z"/>
		<path fill="#141006" d="M254.5,101.6v3.7h0.2c0.9-1.5,2.1-2.6,3.6-3.3c1.5-0.7,3-1,4.5-1c1.9,0,3.5,0.3,4.8,0.8
			c1.2,0.5,2.2,1.3,2.9,2.2c0.7,0.9,1.2,2.1,1.5,3.4c0.3,1.3,0.4,2.8,0.4,4.5v16.2h-7.2v-14.9c0-2.2-0.3-3.8-1-4.9
			c-0.7-1.1-1.9-1.6-3.6-1.6c-2,0-3.4,0.6-4.3,1.8c-0.9,1.2-1.3,3.1-1.3,5.8v13.8h-7.2v-26.3H254.5z"/>
		<path fill="#141006" d="M292.3,101.6v4.8H287v13c0,1.2,0.2,2,0.6,2.4c0.4,0.4,1.2,0.6,2.4,0.6c0.4,0,0.8,0,1.2-0.1
			c0.4,0,0.7-0.1,1.1-0.2v5.6c-0.6,0.1-1.3,0.2-2,0.2c-0.7,0-1.5,0.1-2.2,0.1c-1.1,0-2.2-0.1-3.2-0.2c-1-0.2-1.9-0.4-2.6-0.9
			c-0.8-0.4-1.4-1.1-1.8-1.9c-0.4-0.8-0.7-1.9-0.7-3.2v-15.5h-4.4v-4.8h4.4v-7.9h7.2v7.9H292.3z"/>
		<path fill="#141006" d="M304.1,120.1v7.8h-8v-7.8H304.1z"/>
		<path fill="#141006" d="M320.8,106.3c-1.2,0-2.1,0.3-2.9,0.8c-0.8,0.5-1.4,1.2-1.9,2c-0.5,0.8-0.8,1.8-1,2.8c-0.2,1-0.3,2-0.3,3
			c0,1,0.1,1.9,0.3,2.9c0.2,1,0.5,1.9,1,2.7c0.5,0.8,1.1,1.5,1.9,2c0.8,0.5,1.7,0.8,2.9,0.8c1.7,0,3.1-0.5,4-1.5
			c0.9-1,1.5-2.3,1.8-3.9h7c-0.5,3.5-1.8,6.2-4.1,8c-2.2,1.8-5.1,2.8-8.6,2.8c-2,0-3.8-0.3-5.4-1c-1.6-0.7-3-1.6-4.2-2.8
			c-1.2-1.2-2.1-2.6-2.7-4.3c-0.6-1.6-1-3.5-1-5.4c0-2,0.3-3.9,0.9-5.7c0.6-1.7,1.5-3.3,2.6-4.5c1.2-1.3,2.6-2.3,4.2-3
			c1.7-0.7,3.6-1.1,5.7-1.1c1.6,0,3.1,0.2,4.5,0.6c1.4,0.4,2.7,1,3.9,1.9c1.1,0.8,2.1,1.9,2.8,3.1c0.7,1.2,1.1,2.7,1.2,4.4h-7.1
			C325.7,107.9,323.9,106.3,320.8,106.3z"/>
		<path fill="#141006" d="M337.6,109.1c0.6-1.7,1.6-3.2,2.8-4.4c1.2-1.2,2.6-2.1,4.3-2.8c1.7-0.7,3.5-1,5.6-1c2.1,0,3.9,0.3,5.6,1
			c1.7,0.7,3.1,1.6,4.3,2.8c1.2,1.2,2.1,2.7,2.8,4.4c0.6,1.7,1,3.6,1,5.7c0,2.1-0.3,4-1,5.7c-0.6,1.7-1.6,3.2-2.8,4.4
			c-1.2,1.2-2.6,2.1-4.3,2.8c-1.7,0.6-3.6,1-5.6,1c-2.1,0-3.9-0.3-5.6-1c-1.7-0.6-3.1-1.6-4.3-2.8s-2.1-2.7-2.8-4.4
			c-0.6-1.7-1-3.6-1-5.7C336.7,112.7,337,110.8,337.6,109.1z M344.2,117.9c0.2,1,0.6,1.9,1,2.7c0.5,0.8,1.1,1.4,2,1.9
			c0.8,0.5,1.8,0.7,3.1,0.7c1.2,0,2.2-0.2,3.1-0.7c0.8-0.5,1.5-1.1,2-1.9c0.5-0.8,0.8-1.7,1-2.7c0.2-1,0.3-2,0.3-3.1
			c0-1.1-0.1-2.1-0.3-3.1c-0.2-1-0.6-1.9-1-2.7c-0.5-0.8-1.2-1.4-2-1.9c-0.8-0.5-1.9-0.7-3.1-0.7c-1.2,0-2.2,0.2-3.1,0.7
			c-0.8,0.5-1.5,1.1-2,1.9c-0.5,0.8-0.8,1.7-1,2.7c-0.2,1-0.3,2.1-0.3,3.1C343.9,115.9,344,116.9,344.2,117.9z"/>
	</g>
	<path fill="#B5121B" d="M0,0v84.9h84.9V0H0z M40.8,72.8L28.7,53.2l-4.7,4.5v15.1H12V12.1h12.1v32.5l15.2-15.8h14.3L37,45l18.4,27.8
		H40.8z"/>
</g>
</svg>
